@startuml Class

abstract class Defineable
abstract class Constructorable 
abstract class Defines 

class Class extends Defineable, Constructorable, Defines {
    isCaseClass : Boolean 
    isTrait : Boolean 
    isSuperTrait : Boolean 
}

Class o--> "*" Class : innerClasses\n {refines classes}
Class o--> "*" Import : imports
Class o--> "*" Export : exports 
Class o--left> "0..1  " Inherit : inherits
Class o--> "*" Extension : "extensions"
Class o--> " * " ClassParameterSeqLike : parameterSeqs \n{refines parameterSeqs}

hide class circle
hide class methods
hide Defineable members
hide Constructorable members 
hide Defines members 

skinparam defaultFontName Source Code Pro

skinparam ClassStereotypeFontColor #1b1f23

skinparam class {
    BackgroundColor White
    BorderColor #1b1f23
    ArrowColor #1b1f23
    FontColor #6f42c1
}

skinparam note {
    BackgroundColor White
    BorderColor #1b1f23
    ArrowColor #1b1f23
    FontColor #d73a49
}

skinparam stereotype {
    FontColor #d73a49
}

hide circle
@enduml