@startuml

abstract class Greeting << trait >> {
    <<ctor pos=1>> name : String 
}

class BobGreeting <<caseobject>> 
class EmmaGreeting <<caseobject>>

Greeting <|-- BobGreeting : <<ctorBin vals=["Bob"]>>
Greeting <|-- EmmaGreeting : <<ctorBind vals=["Emma"]>>

hide circle  
hide members 
show Greeting attributes

skinparam defaultFontName Source Code Pro

skinparam ClassStereotypeFontColor #1b1f23

skinparam class {
    BackgroundColor White
    BorderColor #1b1f23
    ArrowColor #1b1f23
    FontColor #6f42c1
}

skinparam note {
    BackgroundColor White
    BorderColor #1b1f23
    ArrowColor #1b1f23
    FontColor #d73a49
}


skinparam stereotype {
    FontColor #d73a49
}
@enduml