@startuml

abstract class Seq<T> << trait >> {

} 

Seq <|-- StringSeq : <<bind T -> String>>

class ss <<extension>> {
    <<def>> longestStrings():Seq<String>
    <<def>> longestString():String 
}

StringSeq <|.. ss : <<extending>>

abstract class List<T> << trait >> 
class xs<T> <<extension>> {
    <<def>> second()
}

List <|..  xs : <<extending, bind T->T>> 


hide circle 
hide members 
show ss methods 
show xs methods 

skinparam defaultFontName Source Code Pro

skinparam ClassStereotypeFontColor #1b1f23

skinparam class {
    BackgroundColor White
    BorderColor #1b1f23
    ArrowColor #1b1f23
    FontColor #6f42c1
}

skinparam note {
    BackgroundColor White
    BorderColor #1b1f23
    ArrowColor #1b1f23
    FontColor #d73a49
}


skinparam stereotype {
    FontColor #d73a49
}
@enduml