@startuml
 package Scala <<profile>> {
    class Specialization <<metaclass>> 
    class Realization <<metaclass>> 
    class Nesting <<metaclass>> 


    class Extending <<stereotype>>
    class Given <<stereotype>> 
    class ObjectDef <<stereotype>> 
    class Companion <<stereotype>> 
    class Ctorbind <<stereotype>> {
        vals : String [*]
    }

    Realization <-- Extending
    Realization <-- Given
    Nesting <-- Companion 
    Realization <-- Ctorbind
    Specialization <-- Ctorbind
    Nesting <-- ObjectDef
 }

hide circle 
hide <<metaclass>> members
hide methods


skinparam defaultFontName Source Code Pro

skinparam ClassStereotypeFontColor #1b1f23

skinparam class {
    BackgroundColor White
    BorderColor #1b1f23
    ArrowColor #1b1f23
    FontColor #6f42c1
}

skinparam note {
    BackgroundColor White
    BorderColor #1b1f23
    ArrowColor #1b1f23
    FontColor #d73a49
}


skinparam stereotype {
    FontColor #d73a49
}
@enduml 