@startuml
 package Scala <<profile>> {
     class TemplateParameter <<metaclass>>

     class Contravariant <<stereotype>>
     class Covariant <<stereotype>> 

     TemplateParameter <-- Contravariant
     TemplateParameter <-- Covariant
     
 }

hide circle 
hide <<metaclass>> members


skinparam defaultFontName Source Code Pro

skinparam ClassStereotypeFontColor #1b1f23

skinparam class {
    BackgroundColor White
    BorderColor #1b1f23
    ArrowColor #1b1f23
    FontColor #6f42c1
}

skinparam note {
    BackgroundColor White
    BorderColor #1b1f23
    ArrowColor #1b1f23
    FontColor #d73a49
}


skinparam stereotype {
    FontColor #d73a49
}
@enduml 