@startuml need_to_find_id

class uml.Class <<caseclass>> {
    isAbstract : Boolean
    name : String
    attributes : List<Attribute>
    operations : List<Operation>
    additionalCompartements : List<Compartment>
    genericParameters : Option<List<GenericParameter>>
    stereotype : List<Stereotype>
    namespace : Entry
}
abstract class uml.NamedElement << trait >>
abstract class uml.PackageBodyElement << trait >>
abstract class uml.TopLevelElement << trait >>
abstract class uml.StereotypeElement << trait >>

uml.TopLevelElement <|-- uml.Class 
uml.StereotypeElement <|-- uml.Class 
uml.PackageBodyElement <|-- uml.Class 
uml.NamedElement <|-- uml.Class   

hide << trait >> members 
hide circle 


skinparam defaultFontName Source Code Pro

skinparam ClassStereotypeFontColor #1b1f23

skinparam class {
    BackgroundColor White
    BorderColor #1b1f23
    ArrowColor #1b1f23
    FontColor #6f42c1
}

skinparam note {
    BackgroundColor White
    BorderColor #1b1f23
    ArrowColor #1b1f23
    FontColor #d73a49
}


skinparam stereotype {
    FontColor #d73a49
}


@enduml