@startuml
abstract class uml.UMLElement << trait >>
abstract class uml.NamedElement << trait >>
abstract class uml.PackageBodyElement << trait >>
abstract class uml.CompartmentElement << trait >>
abstract class uml.TopLevelElement << trait >>
abstract class uml.StereotypeElement << trait >>
abstract class uml.RelationshipElement << trait >>

uml.UMLElement <|-- uml.StereotypeElement 
uml.UMLElement <|-- uml.TopLevelElement 
uml.UMLElement <|-- uml.CompartmentElement 
uml.UMLElement <|-- uml.PackageBodyElement 
uml.UMLElement <|-- uml.NamedElement 
uml.UMLElement <|-- uml.RelationshipElement 

hide circle 
hide members 
skinparam defaultFontName Source Code Pro

skinparam ClassStereotypeFontColor #1b1f23

skinparam class {
    BackgroundColor White
    BorderColor #1b1f23
    ArrowColor #1b1f23
    FontColor #6f42c1
}

skinparam note {
    BackgroundColor White
    BorderColor #1b1f23
    ArrowColor #1b1f23
    FontColor #d73a49
}


skinparam stereotype {
    FontColor #d73a49
}
@enduml 