@startuml need_to_find_id
package scalameta::util::namespaces{
    class scalameta::util::namespaces.NamespaceEntry << caseclass >>{
        qualifiers : List<String>
        targetType : TargetType 
    }
    class scalameta::util::namespaces.DefaultNamespace << caseobject >>
    class scalameta::util::namespaces.NamespaceEmpty << caseobject >>
    abstract class scalameta::util::namespaces.Entry << trait >>
}
scalameta::util::namespaces.Entry <|-- scalameta::util::namespaces.NamespaceEmpty 
scalameta::util::namespaces.Entry <|-- scalameta::util::namespaces.DefaultNamespace 
scalameta::util::namespaces.Entry <|-- scalameta::util::namespaces.NamespaceEntry

hide circle 
skinparam defaultFontName Source Code Pro

skinparam ClassStereotypeFontColor #1b1f23

skinparam class {
    BackgroundColor White
    BorderColor #1b1f23
    ArrowColor #1b1f23
    FontColor #6f42c1
}

skinparam note {
    BackgroundColor White
    BorderColor #1b1f23
    ArrowColor #1b1f23
    FontColor #d73a49
}


skinparam stereotype {
    FontColor #d73a49
}
@enduml